# xmcd
#
# Track frame offsets: 
#        150
#        15319
#        28402
#        41161
#        56859
#        71122
#        87576
#        99614
#        116193
#        130502
#        146266
#        161605
#        171950
#        189104
#        202430
#
# Disc length: 2976 seconds
#
# Revision: 0
# Processed by: cddbd v1.5.2PL0 Copyright (c) Steve Scherf et al.
# Submitted via: ExactAudioCopy v0.99pb4
#
DISCID=de0b9e0f
DTITLE=Rasher And The Train Wrecks - The Teddy's Seddions
DYEAR=2009
DGENRE=Bluegrass
TTITLE0=Hillbilly Rock
TTITLE1=Babe I'm Leaving You
TTITLE2=Lonesome Baby
TTITLE3=Morris Minor
TTITLE4=Silver And Gold
TTITLE5=A Man You Don't Meet Everyday
TTITLE6=Cry Of Midnight
TTITLE7=Walk Right Back
TTITLE8=Blues In The Bottle
TTITLE9=Buckets Of Rain
TTITLE10=Goin Up Country
TTITLE11=Geisha Girl
TTITLE12=That Woman Got Me Drinkin
TTITLE13=Teatime In Paris
TTITLE14=Rainy Night In Soho
EXTD=
EXTT0=
EXTT1=
EXTT2=
EXTT3=
EXTT4=
EXTT5=
EXTT6=
EXTT7=
EXTT8=
EXTT9=
EXTT10=
EXTT11=
EXTT12=
EXTT13=
EXTT14=
PLAYORDER=
